<mxfile host="app.diagrams.net" agent="Mozilla/5.0 (Windows NT 10.0; Win64; x64; rv:136.0) Gecko/20100101 Firefox/136.0" version="26.1.0">
  <diagram name="1 oldal" id="hR-_3FgeCPVRU6QMMOtJ">
    <mxGraphModel dx="1164" dy="741" grid="1" gridSize="10" guides="1" tooltips="1" connect="1" arrows="1" fold="1" page="1" pageScale="1" pageWidth="827" pageHeight="1169" math="0" shadow="0">
      <root>
        <mxCell id="0" />
        <mxCell id="1" parent="0" />
        <mxCell id="2vNEVAX6dBlcioNQXVfj-12" style="rounded=0;orthogonalLoop=1;jettySize=auto;html=1;exitX=0.5;exitY=0;exitDx=0;exitDy=0;entryX=0.5;entryY=1;entryDx=0;entryDy=0;endArrow=none;startFill=0;" edge="1" parent="1" source="2vNEVAX6dBlcioNQXVfj-2" target="2vNEVAX6dBlcioNQXVfj-11">
          <mxGeometry relative="1" as="geometry" />
        </mxCell>
        <mxCell id="2vNEVAX6dBlcioNQXVfj-13" style="rounded=0;orthogonalLoop=1;jettySize=auto;html=1;exitX=0.5;exitY=0;exitDx=0;exitDy=0;entryX=0.5;entryY=1;entryDx=0;entryDy=0;endArrow=none;startFill=0;" edge="1" parent="1" source="2vNEVAX6dBlcioNQXVfj-2" target="2vNEVAX6dBlcioNQXVfj-9">
          <mxGeometry relative="1" as="geometry" />
        </mxCell>
        <mxCell id="2vNEVAX6dBlcioNQXVfj-14" style="rounded=0;orthogonalLoop=1;jettySize=auto;html=1;exitX=0.5;exitY=0;exitDx=0;exitDy=0;entryX=0.5;entryY=1;entryDx=0;entryDy=0;endArrow=none;startFill=0;" edge="1" parent="1" source="2vNEVAX6dBlcioNQXVfj-2" target="2vNEVAX6dBlcioNQXVfj-10">
          <mxGeometry relative="1" as="geometry" />
        </mxCell>
        <mxCell id="2vNEVAX6dBlcioNQXVfj-2" value="Ember" style="rounded=0;whiteSpace=wrap;html=1;" vertex="1" parent="1">
          <mxGeometry x="140" y="330" width="120" height="60" as="geometry" />
        </mxCell>
        <mxCell id="2vNEVAX6dBlcioNQXVfj-18" style="rounded=0;orthogonalLoop=1;jettySize=auto;html=1;exitX=0.5;exitY=0;exitDx=0;exitDy=0;entryX=0.5;entryY=1;entryDx=0;entryDy=0;endArrow=none;startFill=0;" edge="1" parent="1" source="2vNEVAX6dBlcioNQXVfj-3" target="2vNEVAX6dBlcioNQXVfj-17">
          <mxGeometry relative="1" as="geometry" />
        </mxCell>
        <mxCell id="2vNEVAX6dBlcioNQXVfj-19" style="rounded=0;orthogonalLoop=1;jettySize=auto;html=1;exitX=0.5;exitY=0;exitDx=0;exitDy=0;entryX=0.5;entryY=1;entryDx=0;entryDy=0;endArrow=none;startFill=0;" edge="1" parent="1" source="2vNEVAX6dBlcioNQXVfj-3" target="2vNEVAX6dBlcioNQXVfj-15">
          <mxGeometry relative="1" as="geometry" />
        </mxCell>
        <mxCell id="2vNEVAX6dBlcioNQXVfj-20" style="rounded=0;orthogonalLoop=1;jettySize=auto;html=1;exitX=0.5;exitY=0;exitDx=0;exitDy=0;entryX=0.5;entryY=1;entryDx=0;entryDy=0;endArrow=none;startFill=0;" edge="1" parent="1" source="2vNEVAX6dBlcioNQXVfj-3" target="2vNEVAX6dBlcioNQXVfj-16">
          <mxGeometry relative="1" as="geometry" />
        </mxCell>
        <mxCell id="2vNEVAX6dBlcioNQXVfj-3" value="Munkahely" style="rounded=0;whiteSpace=wrap;html=1;" vertex="1" parent="1">
          <mxGeometry x="567" y="330" width="120" height="60" as="geometry" />
        </mxCell>
        <mxCell id="2vNEVAX6dBlcioNQXVfj-5" style="rounded=0;orthogonalLoop=1;jettySize=auto;html=1;exitX=0;exitY=0.5;exitDx=0;exitDy=0;entryX=1;entryY=0.5;entryDx=0;entryDy=0;" edge="1" parent="1" source="2vNEVAX6dBlcioNQXVfj-4" target="2vNEVAX6dBlcioNQXVfj-2">
          <mxGeometry relative="1" as="geometry" />
        </mxCell>
        <mxCell id="2vNEVAX6dBlcioNQXVfj-6" style="rounded=0;orthogonalLoop=1;jettySize=auto;html=1;exitX=1;exitY=0.5;exitDx=0;exitDy=0;entryX=0;entryY=0.5;entryDx=0;entryDy=0;" edge="1" parent="1" source="2vNEVAX6dBlcioNQXVfj-4" target="2vNEVAX6dBlcioNQXVfj-3">
          <mxGeometry relative="1" as="geometry" />
        </mxCell>
        <mxCell id="2vNEVAX6dBlcioNQXVfj-21" style="edgeStyle=orthogonalEdgeStyle;rounded=0;orthogonalLoop=1;jettySize=auto;html=1;exitX=0;exitY=0.5;exitDx=0;exitDy=0;" edge="1" parent="1" source="2vNEVAX6dBlcioNQXVfj-4">
          <mxGeometry relative="1" as="geometry">
            <mxPoint x="270" y="360" as="targetPoint" />
          </mxGeometry>
        </mxCell>
        <mxCell id="2vNEVAX6dBlcioNQXVfj-23" style="edgeStyle=orthogonalEdgeStyle;rounded=0;orthogonalLoop=1;jettySize=auto;html=1;exitX=1;exitY=0.5;exitDx=0;exitDy=0;" edge="1" parent="1" source="2vNEVAX6dBlcioNQXVfj-4">
          <mxGeometry relative="1" as="geometry">
            <mxPoint x="560" y="360" as="targetPoint" />
          </mxGeometry>
        </mxCell>
        <mxCell id="2vNEVAX6dBlcioNQXVfj-4" value="Foglalkozás" style="rhombus;whiteSpace=wrap;html=1;" vertex="1" parent="1">
          <mxGeometry x="373.5" y="320" width="80" height="80" as="geometry" />
        </mxCell>
        <mxCell id="2vNEVAX6dBlcioNQXVfj-9" value="Életkor" style="ellipse;whiteSpace=wrap;html=1;" vertex="1" parent="1">
          <mxGeometry x="140" y="200" width="120" height="80" as="geometry" />
        </mxCell>
        <mxCell id="2vNEVAX6dBlcioNQXVfj-10" value="Ig_szám" style="ellipse;whiteSpace=wrap;html=1;" vertex="1" parent="1">
          <mxGeometry x="280" y="200" width="120" height="80" as="geometry" />
        </mxCell>
        <mxCell id="2vNEVAX6dBlcioNQXVfj-11" value="Név" style="ellipse;whiteSpace=wrap;html=1;" vertex="1" parent="1">
          <mxGeometry y="200" width="120" height="80" as="geometry" />
        </mxCell>
        <mxCell id="2vNEVAX6dBlcioNQXVfj-15" value="Munkavégzés helye" style="ellipse;whiteSpace=wrap;html=1;" vertex="1" parent="1">
          <mxGeometry x="567" y="200" width="120" height="80" as="geometry" />
        </mxCell>
        <mxCell id="2vNEVAX6dBlcioNQXVfj-16" value="Fizetés" style="ellipse;whiteSpace=wrap;html=1;" vertex="1" parent="1">
          <mxGeometry x="707" y="200" width="120" height="80" as="geometry" />
        </mxCell>
        <mxCell id="2vNEVAX6dBlcioNQXVfj-17" value="Pozíció" style="ellipse;whiteSpace=wrap;html=1;" vertex="1" parent="1">
          <mxGeometry x="427" y="200" width="120" height="80" as="geometry" />
        </mxCell>
      </root>
    </mxGraphModel>
  </diagram>
</mxfile>
